<?xml version="1.0" encoding="UTF-8" standalone="no"?>
<!-- Created with Inkscape (http://www.inkscape.org/) -->

<svg
   xmlns:dc="http://purl.org/dc/elements/1.1/"
   xmlns:cc="http://creativecommons.org/ns#"
   xmlns:rdf="http://www.w3.org/1999/02/22-rdf-syntax-ns#"
   xmlns:svg="http://www.w3.org/2000/svg"
   xmlns="http://www.w3.org/2000/svg"
   xmlns:sodipodi="http://sodipodi.sourceforge.net/DTD/sodipodi-0.dtd"
   xmlns:inkscape="http://www.inkscape.org/namespaces/inkscape"
   width="140.63133mm"
   height="140.63133mm"
   viewBox="0 0 140.63133 140.63133"
   version="1.1"
   id="svg8"
   inkscape:version="0.92.3 (2405546, 2018-03-11)"
   sodipodi:docname="test.svg">
  <defs
     id="defs2" />
  <sodipodi:namedview
     id="base"
     pagecolor="#ffffff"
     bordercolor="#666666"
     borderopacity="1.0"
     inkscape:pageopacity="0.0"
     inkscape:pageshadow="2"
     inkscape:zoom="1.979899"
     inkscape:cx="130.21704"
     inkscape:cy="208.17869"
     inkscape:document-units="mm"
     inkscape:current-layer="g3843"
     showgrid="false"
     fit-margin-top="0"
     fit-margin-left="0"
     fit-margin-right="0"
     fit-margin-bottom="0"
     inkscape:window-width="3706"
     inkscape:window-height="2049"
     inkscape:window-x="134"
     inkscape:window-y="55"
     inkscape:window-maximized="1"
     inkscape:pagecheckerboard="true" />
  <metadata
     id="metadata5">
    <rdf:RDF>
      <cc:Work
         rdf:about="">
        <dc:format>image/svg+xml</dc:format>
        <dc:type
           rdf:resource="http://purl.org/dc/dcmitype/StillImage" />
        <dc:title></dc:title>
      </cc:Work>
    </rdf:RDF>
  </metadata>
  <g
     inkscape:label="Layer 1"
     inkscape:groupmode="layer"
     id="layer1"
     transform="translate(-41.754284,-69.06826)">
    <g
       transform="translate(0.00150265,0.19463964)"
       id="g3843">
      <path
         style="fill:#fefefe;stroke-width:0.08466666"
         d="M 41.754284,139.38392 C 54.86001,91.544648 57.571334,81.322558 112.06995,69.06826 c 53.26793,8.752708 64.75192,31.84875 70.31566,70.31566 -2.02471,43.90193 -36.33043,61.92565 -70.31566,70.31567 -49.018634,-3.84792 -62.260174,-34.29526 -70.315666,-70.31567 z"
         id="path3859"
         inkscape:connector-curvature="0"
         sodipodi:nodetypes="ccccc" />
      <path
         style="fill:#d1d0cf;stroke-width:0.08466666"
         d="m 110.08028,209.64078 c -0.30268,-0.0144 -1.54093,-0.0629 -2.75166,-0.1077 -5.5597,-0.20584 -11.808143,-1.42564 -17.949337,-3.50398 -27.286299,-9.23444 -46.481098,-34.72428 -47.548335,-63.14209 -0.284216,-7.56796 0.250359,-13.67053 1.747194,-19.94551 7.248288,-30.386048 34.17702,-52.647787 65.075868,-53.797631 6.87928,-0.256 12.73981,0.19559 18.31449,1.411245 31.46595,6.8617 54.38981,34.238876 55.3287,66.077146 0.35125,11.9112 -1.50632,21.59055 -6.10129,31.79233 -11.58607,25.72344 -38.54279,42.52814 -66.11563,41.21619 z m 7.83167,-4.04046 c 29.94112,-3.01033 53.57858,-24.25592 59.35296,-53.34706 7.18361,-36.19082 -16.64859,-71.382173 -52.97702,-78.227482 -34.389043,-6.479872 -68.112038,15.078316 -76.676956,49.017482 -10.16786,40.29094 18.399794,79.61655 60.056346,82.67226 1.6662,0.12222 8.66612,0.0435 10.24467,-0.1152 z m -7.45983,-7.15253 c -1.09888,-0.27023 -2.76087,-1.19878 -5.83284,-3.25882 -15.107704,-10.13108 -24.323206,-25.28255 -28.026186,-46.07867 -1.159848,-6.51376 -2.013172,-15.78313 -1.621652,-17.61545 0.625455,-2.92715 2.824692,-4.8014 5.995447,-5.10947 3.689587,-0.35849 5.995193,-1.40487 13.83106,-6.27712 3.983095,-2.47664 6.093571,-3.59589 12.319001,-6.53316 5.0418,-2.3788 4.70299,-2.32409 7.45067,-1.20329 2.50755,1.02284 5.24148,2.31647 7.66233,3.62562 1.70898,0.92419 3.46488,1.93882 3.53354,2.04184 0.12019,0.18033 0.0769,6.71689 -0.0448,6.76359 -0.0603,0.0231 -0.95244,-0.46237 -1.9826,-1.07889 -3.95061,-2.36431 -10.89088,-5.88771 -11.59739,-5.88771 -0.12639,0 -5.2277,2.4274 -7.61975,3.62577 -2.66972,1.33748 -4.11439,2.16298 -7.731344,4.41775 -7.281746,4.53937 -10.464536,5.91649 -14.745929,6.38025 -1.426228,0.15449 -1.347136,-0.051 -1.12876,2.9329 2.050343,28.01629 11.29572,45.65555 29.776103,56.80982 1.41393,0.85341 1.30083,0.85873 2.96277,-0.13931 3.72334,-2.23596 7.29416,-4.9942 10.37478,-8.01388 0.89501,-0.87731 1.66654,-1.57084 1.7145,-1.5412 0.0578,0.0357 0.0872,1.38749 0.0872,4.01105 v 3.95715 l -0.3175,0.30302 c -1.94205,1.85351 -7.75632,5.96564 -10.0965,7.14073 -1.67965,0.84341 -3.44081,1.1016 -4.96216,0.72748 z m 20.87462,-14.03403 c -0.0546,-0.14366 -0.0767,-1.85829 -0.0614,-4.7625 l 0.0239,-4.538 0.94061,-1.48167 c 6.12785,-9.65274 9.62412,-21.73013 10.86738,-37.53999 0.26971,-3.42982 0.24991,-3.69267 -0.27823,-3.69267 -0.96375,0 -3.64946,-0.58083 -5.30676,-1.14768 -2.3532,-0.80486 -6.0816,-2.61386 -6.19016,-3.00344 -0.0722,-0.25899 -0.0922,-6.23296 -0.0218,-6.49572 0.0782,-0.29182 0.20226,-0.24683 1.5394,0.5583 4.50088,2.71012 7.26073,3.77782 10.75492,4.16076 2.31173,0.25334 4.00373,1.38369 4.94438,3.30311 0.85071,1.7359 0.89773,2.59251 0.44154,8.04333 -1.62214,19.38208 -6.9619,34.23409 -16.39564,45.60275 -1.07968,1.30114 -1.12698,1.33849 -1.25817,0.99342 z M 92.695637,166.88672 c -0.03118,-0.0312 -0.05669,-0.9436 -0.05669,-2.0276 v -1.97092 l 0.956071,-1.21114 c 0.525838,-0.66613 3.764338,-4.74483 7.196672,-9.06379 3.43232,-4.31897 6.24059,-7.87156 6.24059,-7.89466 0,-0.0231 -2.98132,-0.0517 -6.62516,-0.0637 l -6.625173,-0.0217 -0.02247,-2.43577 -0.02247,-2.43577 0.234134,-0.0922 c 0.430586,-0.16955 39.323319,-0.0118 39.455969,0.15999 0.13071,0.16934 0.15143,4.29177 0.0233,4.62889 l -0.0826,0.21718 h -5.92876 -5.92877 v 3.175 3.175 h 4.98982 c 3.03723,0 5.07481,0.0323 5.207,0.0826 l 0.21718,0.0826 -0.001,2.30927 c -8.4e-4,1.27009 -0.0314,2.35659 -0.0681,2.41442 -0.0517,0.0815 -1.21941,0.11009 -5.18453,0.127 l -5.11777,0.0218 -0.0423,5.41866 -0.0423,5.41867 -14.35781,0.0214 c -7.896796,0.0118 -14.383321,-0.004 -14.4145,-0.0353 z m 22.549313,-13.80604 v -8.86691 l -0.20042,0.20975 c -0.41476,0.43404 -13.93891,17.3507 -13.93891,17.43545 0,0.061 2.20259,0.0886 7.06966,0.0886 h 7.06967 z m 23.15633,-34.24014 c -1.42892,-0.78913 -2.74173,-1.57235 -4.953,-2.95496 -1.46685,-0.91716 -3.29565,-2.04408 -4.064,-2.50427 l -1.397,-0.83672 -0.0499,-3.47133 c -0.0584,-4.05884 -0.1922,-5.02029 -1.00732,-7.239 -4.62129,-12.578887 -20.63039,-14.562788 -27.940894,-3.46253 -2.042014,3.10059 -2.704636,5.67623 -2.764015,10.74386 -0.01992,1.69969 -0.05312,3.17008 -0.07379,3.26754 -0.02629,0.12397 -0.413336,0.3933 -1.288553,0.89664 -0.688036,0.3957 -2.511899,1.50388 -4.053028,2.46262 -4.850474,3.01749 -5.440602,3.31586 -5.606756,2.8347 -0.128459,-0.372 0.03909,-12.51511 0.191144,-13.85274 2.16695,-19.063306 21.718562,-30.185353 38.402162,-21.845293 8.15082,4.074559 13.66078,11.949464 14.95103,21.368203 0.1688,1.23218 0.24722,7.78627 0.14335,11.97929 -0.0708,2.85621 -0.0689,2.84621 -0.48938,2.61399 z"
         id="path3857"
         inkscape:connector-curvature="0" />
      <path
         style="fill:#e3cea5;stroke-width:0.08466666"
         d="M 107.45562,209.53102 C 75.449554,207.83924 47.966031,182.97713 42.687901,150.94092 35.42819,106.8773 70.265083,67.397804 114.86395,69.146208 c 40.51262,1.58821 71.28941,37.082552 67.14258,77.434382 -3.43688,33.4435 -29.82958,59.53842 -63.54425,62.82731 -1.61588,0.15764 -8.82757,0.2383 -11.00666,0.12312 z m 8.67977,-3.72846 c 38.78213,-2.49409 67.08986,-37.1021 61.84133,-75.60497 -4.01757,-29.4726 -27.61021,-52.924726 -57.14377,-56.803436 -38.130897,-5.007818 -72.434333,22.997616 -75.177855,61.375436 -2.243497,31.38322 18.099159,60.20313 48.502119,68.71409 4.604601,1.289 8.706806,1.96246 14.314406,2.35 0.99038,0.0684 6.46106,0.0462 7.66377,-0.0311 z m -5.47309,-7.3228 c -1.19534,-0.26939 -2.88482,-1.19923 -6.10563,-3.36031 -16.66753,-11.18351 -26.178812,-28.62103 -28.969283,-53.11086 -0.643407,-5.6467 -0.846424,-9.21085 -0.594596,-10.43873 0.624933,-3.04712 2.762884,-4.84369 6.168463,-5.18352 3.456714,-0.34492 5.847223,-1.40557 12.493695,-5.54336 5.062689,-3.1518 6.721151,-4.04402 13.376961,-7.19657 5.05926,-2.39633 4.84715,-2.35767 7.32404,-1.33507 3.87224,1.59867 10.60016,4.99142 11.31431,5.70556 0.21672,0.21673 0.24874,6.64786 0.0335,6.73045 -0.0717,0.0275 -0.87074,-0.39969 -1.88384,-1.00722 -4.15842,-2.49368 -10.90655,-5.90387 -11.68266,-5.90387 -0.16977,0 -4.61668,2.08899 -7.33326,3.44488 -3.03958,1.51711 -4.19523,2.17951 -8.609061,4.93459 -6.608457,4.12494 -10.022316,5.57429 -14.181666,6.02083 -1.411574,0.15155 -1.361127,-0.0302 -1.058598,3.81381 2.167612,27.54221 11.395776,44.90959 29.751145,55.99156 1.35232,0.81644 1.34382,0.81659 2.7884,-0.0467 3.836,-2.29234 7.53297,-5.14608 10.81948,-8.35169 0.6804,-0.66365 1.27603,-1.20665 1.32362,-1.20665 0.16905,0 0.18865,0.42327 0.1898,4.09818 l 0.001,3.71717 -0.35984,0.33641 c -2.05198,1.91841 -7.84395,5.9993 -10.13664,7.14205 -1.51405,0.75465 -3.34289,1.04801 -4.6695,0.74903 z m 20.70683,-14.11985 c -0.023,-0.06 -0.0313,-2.16499 -0.0185,-4.67784 l 0.0233,-4.56881 0.55752,-0.84667 c 6.29983,-9.56707 9.98065,-22.09403 11.25403,-38.30089 0.27207,-3.46289 0.25097,-3.65142 -0.40876,-3.65146 -0.9127,-5e-5 -3.62408,-0.58591 -5.22212,-1.12837 -1.88464,-0.63975 -5.57137,-2.36521 -6.0325,-2.82333 l -0.1905,-0.18925 v -3.12959 c 0,-3.00074 0.0199,-3.39744 0.17019,-3.39744 0.0371,0 0.72833,0.39439 1.53611,0.87641 4.32607,2.5815 7.17961,3.6717 10.56313,4.03564 2.4373,0.26217 4.1842,1.52393 5.07478,3.66543 0.60905,1.46455 0.6463,2.71666 0.22594,7.59385 -1.72993,20.07105 -7.16613,34.80855 -17.13794,46.46083 -0.1828,0.21362 -0.33216,0.24445 -0.3947,0.0815 z m -27.27901,-17.48049 -11.366504,-0.0218 v -1.97721 -1.97721 l 7.194125,-9.05031 c 3.956769,-4.97768 7.195269,-9.09772 7.196669,-9.15565 0.002,-0.0829 -1.40622,-0.10992 -6.62263,-0.127 l -6.625164,-0.0217 -0.02248,-2.38989 -0.02248,-2.38989 0.191816,-0.0462 c 0.105498,-0.0254 9.011958,-0.0358 19.792148,-0.0231 l 19.60033,0.0231 v 2.413 2.413 l -5.92667,0.0423 -5.92666,0.0423 v 3.21733 3.21733 l 5.12233,0.0423 5.12233,0.0423 v 2.413 2.413 l -5.1435,0.0218 -5.1435,0.0218 v 5.35874 c 0,4.05502 -0.0247,5.38346 -0.1016,5.46034 -0.0759,0.0759 -0.84073,0.0963 -3.02683,0.0807 -1.60888,-0.0115 -8.04016,-0.0307 -14.29173,-0.0426 z m 11.21872,-13.85018 c 0.0143,-5.94884 -0.007,-8.95116 -0.0632,-8.93233 -0.0763,0.0255 -2.75546,3.34629 -11.44865,14.19036 -1.57787,1.96828 -2.84561,3.61632 -2.81718,3.66232 0.0335,0.0543 2.55423,0.076 7.17956,0.062 l 7.12787,-0.0216 z m 21.94859,-34.92348 c -0.72132,-0.41089 -2.43543,-1.45258 -3.80915,-2.31487 -1.37371,-0.86229 -3.15192,-1.9566 -3.95155,-2.4318 l -1.4539,-0.86401 -0.0377,-3.44658 c -0.0401,-3.66236 -0.0599,-3.87632 -0.52762,-5.70516 -3.30035,-12.903813 -19.31594,-16.649633 -27.519723,-6.436472 -2.819736,3.510382 -3.748131,6.510672 -3.824571,12.359852 -0.0406,3.10694 -0.04412,3.15882 -0.222589,3.2853 -0.09973,0.0707 -1.000484,0.6148 -2.001668,1.20917 -1.001183,0.59437 -2.753783,1.66443 -3.894666,2.37793 -3.595148,2.24836 -4.718596,2.82499 -4.749891,2.43797 -0.04899,-0.6058 0.03608,-11.13685 0.099,-12.2555 0.935571,-16.63435 15.625678,-28.668151 31.405558,-25.726715 11.53094,2.149416 20.12632,11.417916 21.89539,23.610055 0.2538,1.74915 0.24513,14.53493 -0.01,14.61953 -0.047,0.0156 -0.67569,-0.30781 -1.397,-0.7187 z"
         id="path3855"
         inkscape:connector-curvature="0" />
      <path
         style="fill:#ddb15b;stroke-width:0.08466666"
         d="M 107.45562,209.53102 C 75.449554,207.83924 47.966031,182.97713 42.687901,150.94092 35.42819,106.8773 70.265083,67.397804 114.86395,69.146208 c 40.51262,1.58821 71.28941,37.082552 67.14258,77.434382 -3.43688,33.4435 -29.82958,59.53842 -63.54425,62.82731 -1.61588,0.15764 -8.82757,0.2383 -11.00666,0.12312 z m 8.67977,-3.72846 c 38.78213,-2.49409 67.08986,-37.1021 61.84133,-75.60497 -4.01757,-29.4726 -27.61021,-52.924726 -57.14377,-56.803436 -38.130897,-5.007818 -72.434333,22.997616 -75.177855,61.375436 -2.243497,31.38322 18.099159,60.20313 48.502119,68.71409 4.604601,1.289 8.706806,1.96246 14.314406,2.35 0.99038,0.0684 6.46106,0.0462 7.66377,-0.0311 z m -5.50477,-7.41284 c -0.7398,-0.16454 -1.81613,-0.67059 -3.13267,-1.47287 -20.264945,-12.34922 -30.469027,-31.85921 -32.477079,-62.09549 -0.349369,-5.26061 1.588663,-7.89616 6.140383,-8.35035 3.517421,-0.35098 5.8201,-1.38515 12.935799,-5.80967 4.713957,-2.93112 6.646767,-3.96295 13.273897,-7.08625 4.70671,-2.21822 4.53441,-2.18915 6.985,-1.17847 3.80952,1.57114 10.98952,5.19834 11.32037,5.71885 0.0986,0.1552 0.0832,6.47431 -0.016,6.5356 -0.0458,0.0283 -0.88815,-0.42971 -1.87187,-1.01783 -4.23663,-2.53288 -10.875,-5.88165 -11.65939,-5.88165 -0.18421,0 -5.07276,2.3088 -7.84845,3.70673 -2.51822,1.26825 -3.89503,2.05665 -7.450671,4.26646 -7.508687,4.6666 -10.512092,5.9672 -14.853316,6.43211 -1.46166,0.15654 -1.413933,-0.0114 -1.106615,3.89348 2.174459,27.62921 11.479211,45.07828 29.942132,56.15008 1.25243,0.75105 1.25301,0.75101 2.82846,-0.19888 3.94885,-2.38086 7.92062,-5.48028 11.00096,-8.58475 0.53475,-0.53894 1.00148,-0.9799 1.03716,-0.9799 0.0357,0 0.0649,1.75475 0.0649,3.89945 v 3.89943 l -0.27517,0.25704 c -2.08067,1.94357 -7.76767,5.95088 -10.12647,7.13554 -1.55985,0.78341 -3.32766,1.06907 -4.71136,0.76134 z m 20.73851,-14.02981 c -0.023,-0.06 -0.0313,-2.16499 -0.0185,-4.67784 l 0.0233,-4.56881 0.55752,-0.84667 c 6.29983,-9.56707 9.98065,-22.09403 11.25403,-38.30089 0.27207,-3.46289 0.25097,-3.65142 -0.40876,-3.65146 -0.9127,-5e-5 -3.62408,-0.58591 -5.22212,-1.12837 -1.88464,-0.63975 -5.57137,-2.36521 -6.0325,-2.82333 l -0.1905,-0.18925 v -3.12959 c 0,-3.00074 0.0199,-3.39744 0.17019,-3.39744 0.0371,0 0.72833,0.39439 1.53611,0.87641 4.32607,2.5815 7.17961,3.6717 10.56313,4.03564 2.4373,0.26217 4.1842,1.52393 5.07478,3.66543 0.60905,1.46455 0.6463,2.71666 0.22594,7.59385 -1.72993,20.07105 -7.16613,34.80855 -17.13794,46.46083 -0.1828,0.21362 -0.33216,0.24445 -0.3947,0.0815 z M 92.723616,164.88075 v -1.97752 l 7.194125,-9.05031 c 3.956769,-4.97768 7.195269,-9.09772 7.196669,-9.15565 0.002,-0.0829 -1.40622,-0.10992 -6.62263,-0.127 l -6.625164,-0.0217 -0.02248,-2.38989 -0.02248,-2.38989 0.224259,-0.0563 c 0.246473,-0.0619 39.151735,0.0453 39.254205,0.10812 0.0349,0.0214 0.0635,1.08444 0.0635,2.36227 v 2.32334 l -5.86317,10e-4 c -3.22474,6.8e-4 -5.91125,0.0318 -5.97002,0.0691 -0.0836,0.0531 -0.10204,0.77486 -0.0847,3.32187 l 0.0222,3.25404 5.1435,0.0218 5.1435,0.0218 v 2.36935 2.36936 l -5.1435,0.0218 -5.1435,0.0218 -0.0218,5.3261 c -0.0154,3.76262 -0.0495,5.35949 -0.1162,5.43983 -0.0783,0.0944 -2.52057,0.11374 -14.35036,0.11374 H 92.72361 Z m 22.556744,-2.89988 c 0.15336,-0.0589 0.21104,-17.98261 0.0579,-17.98261 -0.0564,0 -8.08563,9.95022 -14.25928,17.67085 -0.0845,0.1057 -0.1299,0.23064 -0.10084,0.27766 0.0575,0.093 14.06171,0.1264 14.30225,0.0341 z m 21.97707,-43.87511 c -0.72132,-0.41089 -2.43543,-1.45258 -3.80915,-2.31487 -1.37371,-0.86229 -3.15192,-1.9566 -3.95155,-2.4318 l -1.4539,-0.86401 -0.0377,-3.44658 c -0.0401,-3.66236 -0.0599,-3.87632 -0.52762,-5.70516 -3.30035,-12.903813 -19.31594,-16.649633 -27.519723,-6.436472 -2.819736,3.510382 -3.748131,6.510672 -3.824571,12.359852 -0.0406,3.10694 -0.04412,3.15882 -0.222589,3.2853 -0.09973,0.0707 -1.000484,0.6148 -2.001668,1.20917 -1.001183,0.59437 -2.753783,1.66443 -3.894666,2.37793 -3.595148,2.24836 -4.718596,2.82499 -4.749891,2.43797 -0.04899,-0.6058 0.03608,-11.13685 0.099,-12.2555 0.935571,-16.63435 15.625678,-28.668151 31.405558,-25.726715 11.53094,2.149416 20.12632,11.417916 21.89539,23.610055 0.2538,1.74915 0.24513,14.53493 -0.01,14.61953 -0.047,0.0156 -0.67569,-0.30781 -1.397,-0.7187 z"
         id="path3853"
         inkscape:connector-curvature="0" />
      <path
         style="fill:#a2a19f;stroke-width:0.08466666"
         d="M 107.45562,209.53102 C 75.449554,207.83924 47.966031,182.97713 42.687901,150.94092 35.42819,106.8773 70.265083,67.397804 114.86395,69.146208 c 40.51262,1.58821 71.28941,37.082552 67.14258,77.434382 -3.43688,33.4435 -29.82958,59.53842 -63.54425,62.82731 -1.61588,0.15764 -8.82757,0.2383 -11.00666,0.12312 z m 8.67977,-3.72846 c 38.78213,-2.49409 67.08986,-37.1021 61.84133,-75.60497 -4.01757,-29.4726 -27.61021,-52.924726 -57.14377,-56.803436 -38.130897,-5.007818 -72.434333,22.997616 -75.177855,61.375436 -2.243497,31.38322 18.099159,60.20313 48.502119,68.71409 4.604601,1.289 8.706806,1.96246 14.314406,2.35 0.99038,0.0684 6.46106,0.0462 7.66377,-0.0311 z m -4.99677,-7.42413 c -1.31823,-0.1823 -2.4732,-0.76842 -5.79967,-2.94316 -17.735536,-11.59489 -27.456647,-29.965 -29.885345,-56.47468 -0.433368,-4.73029 -0.497541,-6.26206 -0.30385,-7.25272 0.592235,-3.02905 2.54225,-4.73411 5.847528,-5.11296 3.778468,-0.43308 6.055705,-1.42708 12.530666,-5.46954 5.048277,-3.15175 7.422941,-4.44383 12.641841,-6.87859 0.75964,-0.35439 2.13124,-1.00338 3.048,-1.44219 2.80313,-1.34173 2.79219,-1.34249 7.00083,0.48716 3.08017,1.33907 8.98393,4.41582 9.3345,4.8647 0.14526,0.186 0.15468,6.36848 0.01,6.36848 -0.0529,0 -0.7863,-0.41443 -1.62984,-0.92095 -4.4892,-2.69565 -10.94025,-5.93705 -11.81594,-5.93705 -0.21997,0 -5.86516,2.65981 -8.34442,3.9316 -2.22267,1.14017 -3.50322,1.88354 -7.154337,4.15318 -7.415402,4.60964 -10.488789,5.91005 -15.010723,6.35134 -1.19893,0.117 -1.198032,0.10844 -0.648496,6.18021 2.35058,25.97129 11.768964,43.10576 29.618606,53.8839 1.55356,0.93809 1.44574,0.95293 3.82061,-0.52613 3.59307,-2.23774 6.5031,-4.50696 9.74722,-7.60077 0.77415,-0.7383 1.43138,-1.31852 1.4605,-1.2894 0.0889,0.0889 0.061,7.30214 -0.0289,7.47009 -0.33649,0.62872 -5.82288,4.67461 -8.81902,6.50348 -2.32526,1.41938 -3.92062,1.88894 -5.61949,1.654 z m 20.23051,-14.01852 c -0.023,-0.06 -0.0313,-2.16499 -0.0185,-4.67784 l 0.0233,-4.56881 0.55752,-0.84667 c 6.29983,-9.56707 9.98065,-22.09403 11.25403,-38.30089 0.27207,-3.46289 0.25097,-3.65142 -0.40876,-3.65146 -0.9127,-5e-5 -3.62408,-0.58591 -5.22212,-1.12837 -1.88464,-0.63975 -5.57137,-2.36521 -6.0325,-2.82333 l -0.1905,-0.18925 v -3.12959 c 0,-3.00074 0.0199,-3.39744 0.17019,-3.39744 0.0371,0 0.72833,0.39439 1.53611,0.87641 4.32607,2.5815 7.17961,3.6717 10.56313,4.03564 2.4373,0.26217 4.1842,1.52393 5.07478,3.66543 0.60905,1.46455 0.6463,2.71666 0.22594,7.59385 -1.72993,20.07105 -7.16613,34.80855 -17.13794,46.46083 -0.1828,0.21362 -0.33216,0.24445 -0.3947,0.0815 z m -5.78272,-1.74578 c -0.0852,-0.0529 -0.0892,-0.0872 -0.0155,-0.13276 0.11618,-0.0718 0.20339,-0.008 0.16039,0.11689 -0.0176,0.0512 -0.0774,0.0578 -0.14486,0.0159 z M 92.723616,164.89257 v -1.98934 l 7.194125,-9.05031 c 3.956769,-4.97768 7.195269,-9.09772 7.196669,-9.15565 0.002,-0.0829 -1.40622,-0.10992 -6.62263,-0.127 l -6.625164,-0.0217 -0.02253,-2.36482 c -0.01749,-1.8355 0.0015,-2.38006 0.08467,-2.43287 0.162165,-0.10294 21.379494,-0.0891 21.443204,0.014 0.0344,0.0556 3.11943,0.0847 8.97966,0.0847 h 8.92734 v 2.286 2.286 l -5.86317,0.001 c -3.22474,6.7e-4 -5.91124,0.0318 -5.96999,0.0691 -0.0837,0.0531 -0.10203,0.79177 -0.0847,3.40654 l 0.0222,3.33872 5.1435,0.0218 5.1435,0.0218 v 2.28469 2.28469 l -5.1435,0.0218 -5.1435,0.0218 -0.0218,5.34532 c -0.0191,4.68804 -0.0378,5.35861 -0.15195,5.45335 -0.10396,0.0863 -2.98448,0.11621 -14.30804,0.14867 l -14.177888,0.0406 z m 22.775334,-11.91965 c 0,-4.97713 -0.0286,-9.06569 -0.0635,-9.08568 -0.0758,-0.0434 -14.45683,17.86963 -14.45683,18.0074 0,0.0699 1.9152,0.0953 7.1755,0.0953 3.94653,0 7.1755,0.0308 7.1755,0.0685 0,0.0377 0.0381,0.045 0.0847,0.0162 0.0556,-0.0344 0.0847,-3.1601 0.0847,-9.10167 z m 21.75848,-34.86716 c -0.72132,-0.41089 -2.43543,-1.45258 -3.80915,-2.31487 -1.37371,-0.86229 -3.15192,-1.9566 -3.95155,-2.4318 l -1.4539,-0.86401 -0.0377,-3.44658 c -0.0401,-3.66236 -0.0599,-3.87632 -0.52762,-5.70516 -3.30035,-12.903813 -19.31594,-16.649633 -27.519723,-6.436472 -2.819736,3.510382 -3.748131,6.510672 -3.824571,12.359852 -0.0406,3.10694 -0.04412,3.15882 -0.222589,3.2853 -0.09973,0.0707 -1.000484,0.6148 -2.001668,1.20917 -1.001183,0.59437 -2.753783,1.66443 -3.894666,2.37793 -3.595148,2.24836 -4.718596,2.82499 -4.749891,2.43797 -0.04899,-0.6058 0.03608,-11.13685 0.099,-12.2555 0.935571,-16.63435 15.625678,-28.668151 31.405558,-25.726715 11.53094,2.149416 20.12632,11.417916 21.89539,23.610055 0.2538,1.74915 0.24513,14.53493 -0.01,14.61953 -0.047,0.0156 -0.67569,-0.30781 -1.397,-0.7187 z"
         id="path3851"
         inkscape:connector-curvature="0" />
      <path
         style="fill:#cd8804;stroke-width:0.08466666"
         d="M 107.54028,209.47915 C 66.978599,206.67636 37.377111,170.8601 42.351167,130.60371 46.682749,95.547031 76.619779,69.151366 112.04631,69.15307 c 43.89609,0.0021 76.95576,39.67976 69.09851,82.93085 -6.33265,34.85868 -38.35729,59.8308 -73.60454,57.39523 z m 10.62567,-3.75258 c 43.1301,-4.2452 70.81422,-46.99439 56.9393,-87.92437 C 162.62264,80.979427 120.66697,62.62283 85.103616,78.424354 43.636704,96.848949 32.258475,150.21196 62.591748,184.00326 c 11.736772,13.07477 27.671871,20.68731 45.879872,21.9178 1.58414,0.10705 7.92268,-0.0201 9.69433,-0.19449 z m -7.02733,-7.34814 c -1.31823,-0.1823 -2.4732,-0.76842 -5.79967,-2.94316 -17.735536,-11.59489 -27.456647,-29.965 -29.885345,-56.47468 -0.433368,-4.73029 -0.497541,-6.26206 -0.30385,-7.25272 0.592235,-3.02905 2.54225,-4.73411 5.847528,-5.11296 3.778468,-0.43308 6.055705,-1.42708 12.530666,-5.46954 5.048277,-3.15175 7.422941,-4.44383 12.641841,-6.87859 0.75964,-0.35439 2.13124,-1.00338 3.048,-1.44219 2.80313,-1.34173 2.79219,-1.34249 7.00083,0.48716 3.08017,1.33907 8.98393,4.41582 9.3345,4.8647 0.14526,0.186 0.15468,6.36848 0.01,6.36848 -0.0529,0 -0.7863,-0.41443 -1.62984,-0.92095 -4.4892,-2.69565 -10.94025,-5.93705 -11.81594,-5.93705 -0.21997,0 -5.86516,2.65981 -8.34442,3.9316 -2.22267,1.14017 -3.50322,1.88354 -7.154337,4.15318 -7.415402,4.60964 -10.488789,5.91005 -15.010723,6.35134 -1.19893,0.117 -1.198032,0.10844 -0.648496,6.18021 2.35058,25.97129 11.768964,43.10576 29.618606,53.8839 1.55356,0.93809 1.44574,0.95293 3.82061,-0.52613 3.59307,-2.23774 6.5031,-4.50696 9.74722,-7.60077 0.77415,-0.7383 1.43138,-1.31852 1.4605,-1.2894 0.0889,0.0889 0.061,7.30214 -0.0289,7.47009 -0.33649,0.62872 -5.82288,4.67461 -8.81902,6.50348 -2.32526,1.41938 -3.92062,1.88894 -5.61949,1.654 z m 20.33337,-14.05135 c -0.0306,-0.0306 -0.0557,-2.09179 -0.0557,-4.58034 v -4.52462 l 0.70879,-1.11276 c 6.4002,-10.04803 9.89365,-22.04852 11.1441,-38.28143 0.28116,-3.65005 0.31691,-3.49043 -0.80863,-3.61059 -3.15878,-0.33723 -7.87705,-1.99944 -10.76909,-3.79386 l -0.27517,-0.17073 v -3.21358 c 0,-1.85525 0.0328,-3.23385 0.0776,-3.26153 0.0427,-0.0264 0.60464,0.26996 1.24884,0.65852 4.31772,2.60432 7.30969,3.78379 10.55138,4.1595 4.43417,0.51393 6.11952,3.02408 5.73948,8.54839 -1.43172,20.81183 -6.67503,36.14774 -16.40593,47.98492 -0.95596,1.16288 -1.07129,1.28245 -1.15564,1.19811 z M 92.808283,164.84317 v -1.93043 l 7.217837,-9.08502 c 3.9698,-4.99676 7.21783,-9.1287 7.21783,-9.18208 0,-0.0719 -1.72461,-0.10266 -6.66884,-0.11873 l -6.668838,-0.0217 0.02251,-2.34898 0.02251,-2.34899 1.693333,-0.0273 c 0.931333,-0.015 9.780055,-8.5e-4 19.663835,0.0316 l 17.9705,0.059 v 2.27554 2.27554 l -5.86317,0.001 c -3.22474,6.7e-4 -5.91124,0.0318 -5.96999,0.0691 -0.0837,0.0531 -0.10203,0.79177 -0.0847,3.40654 l 0.0222,3.33872 5.1435,0.0218 5.1435,0.0218 v 2.28469 2.28469 l -5.1435,0.0218 -5.1435,0.0218 -0.0218,5.32611 c -0.0154,3.76262 -0.0495,5.35948 -0.1162,5.43983 -0.0783,0.0944 -2.50677,0.11373 -14.26569,0.11373 H 92.808283 Z m 22.670137,-11.78558 c 0.012,-4.95935 0.002,-9.06891 -0.0222,-9.13237 -0.074,-0.19401 -0.077,-0.19029 -7.34849,8.87837 -3.8645,4.81965 -7.08268,8.82825 -7.15152,8.90802 -0.36344,0.42106 -0.57676,0.4097 7.23805,0.38549 l 7.26232,-0.0225 z m 21.68495,-35.08714 c -0.68086,-0.39056 -2.22391,-1.3308 -3.429,-2.08942 -1.2051,-0.75862 -2.91157,-1.81054 -3.79216,-2.33761 -0.88059,-0.52706 -1.64851,-0.99766 -1.70649,-1.04578 -0.0796,-0.0661 -0.11551,-0.92067 -0.14668,-3.4916 -0.0497,-4.10381 -0.22407,-5.23926 -1.17262,-7.63745 -4.37837,-11.069661 -17.98186,-13.978456 -26.06904,-5.574265 -3.453829,3.58922 -4.703314,7.112405 -4.812125,13.568795 l -0.05197,3.08386 -1.397,0.81458 c -0.76835,0.44802 -2.5019,1.5022 -3.852333,2.34261 -4.031836,2.50913 -4.931758,3.02126 -5.232933,2.97796 l -0.182266,-0.0262 0.02483,-5.461 c 0.03276,-7.20543 0.108728,-8.50302 0.652235,-11.14122 2.118523,-10.283344 10.053749,-18.620718 19.978132,-20.990598 15.81096,-3.775559 31.21325,7.68328 32.7197,24.342478 0.20389,2.25467 0.0726,13.37818 -0.15784,13.37615 -0.074,-6.8e-4 -0.69159,-0.32073 -1.37244,-0.71129 z"
         id="path3849"
         inkscape:connector-curvature="0" />
      <path
         style="fill:#605e5a;stroke-width:0.08466666"
         d="M 107.54028,209.47915 C 66.978599,206.67636 37.377111,170.8601 42.351167,130.60371 46.682749,95.547031 76.619779,69.151366 112.04631,69.15307 c 43.89609,0.0021 76.95576,39.67976 69.09851,82.93085 -6.33265,34.85868 -38.35729,59.8308 -73.60454,57.39523 z m 10.62567,-3.75258 c 43.1301,-4.2452 70.81422,-46.99439 56.9393,-87.92437 C 162.62264,80.979427 120.66697,62.62283 85.103616,78.424354 43.636704,96.848949 32.258475,150.21196 62.591748,184.00326 c 11.736772,13.07477 27.671871,20.68731 45.879872,21.9178 1.58414,0.10705 7.92268,-0.0201 9.69433,-0.19449 z m 13.30604,-21.39949 c -0.0306,-0.0306 -0.0557,-2.09179 -0.0557,-4.58034 v -4.52462 l 0.70879,-1.11276 c 6.4002,-10.04803 9.89365,-22.04852 11.1441,-38.28143 0.28116,-3.65005 0.31691,-3.49043 -0.80863,-3.61059 -3.15878,-0.33723 -7.87705,-1.99944 -10.76909,-3.79386 l -0.27517,-0.17073 v -3.21358 c 0,-1.85525 0.0328,-3.23385 0.0776,-3.26153 0.0427,-0.0264 0.60464,0.26996 1.24884,0.65852 4.31772,2.60432 7.30969,3.78379 10.55138,4.1595 4.43417,0.51393 6.11952,3.02408 5.73948,8.54839 -1.43172,20.81183 -6.67503,36.14774 -16.40593,47.98492 -0.95596,1.16288 -1.07129,1.28245 -1.15564,1.19811 z M 92.808283,164.84317 v -1.93043 l 7.217837,-9.08502 c 3.9698,-4.99676 7.21783,-9.1287 7.21783,-9.18208 0,-0.0719 -1.72461,-0.10266 -6.66884,-0.11873 l -6.668838,-0.0217 0.02251,-2.34898 0.02251,-2.34899 h 10.710338 10.71033 l 0.0228,1.97848 0.0228,1.97848 -0.31908,0.35204 c -0.83183,0.91777 -14.20442,17.6895 -14.20442,17.815 0,0.13339 0.50198,0.1447 7.239,0.16306 l 7.239,0.0197 0.0225,2.32977 0.0225,2.32977 H 104.11262 92.808283 Z m 44.355087,-46.87272 c -0.68086,-0.39056 -2.22391,-1.3308 -3.429,-2.08942 -1.2051,-0.75862 -2.91157,-1.81054 -3.79216,-2.33761 -0.88059,-0.52706 -1.64851,-0.99766 -1.70649,-1.04578 -0.0796,-0.0661 -0.11551,-0.92067 -0.14668,-3.4916 -0.0497,-4.10381 -0.22407,-5.23926 -1.17262,-7.63745 -4.37837,-11.069661 -17.98186,-13.978456 -26.06904,-5.574265 -3.453829,3.58922 -4.703314,7.112405 -4.812125,13.568795 l -0.05197,3.08386 -1.397,0.81458 c -0.76835,0.44802 -2.5019,1.5022 -3.852333,2.34261 -4.031836,2.50913 -4.931758,3.02126 -5.232933,2.97796 l -0.182266,-0.0262 0.02483,-5.461 c 0.03276,-7.20543 0.108728,-8.50302 0.652235,-11.14122 2.118523,-10.283344 10.053749,-18.620718 19.978132,-20.990598 15.81096,-3.775559 31.21325,7.68328 32.7197,24.342478 0.20389,2.25467 0.0726,13.37818 -0.15784,13.37615 -0.074,-6.8e-4 -0.69159,-0.32073 -1.37244,-0.71129 z"
         id="path3847"
         inkscape:connector-curvature="0" />
      <path
         style="fill:#2b2924;stroke-width:0.08466666"
         d="m 109.77581,209.54343 c 0.0243,-0.0393 -0.57353,-0.0963 -1.3285,-0.12666 -28.998841,-1.16535 -54.991023,-21.46785 -63.521708,-49.61683 -1.608856,-5.30879 -2.917318,-12.84038 -2.917318,-16.79227 0,-0.29916 -0.03718,-0.53341 -0.08467,-0.53341 -0.05492,0 -0.08467,-1.10233 -0.08467,-3.13767 0,-1.72571 0.0323,-3.1177 0.07177,-3.0933 0.03947,0.0244 0.09757,-0.49723 0.1291,-1.15917 1.269413,-26.64847 19.13257,-51.182036 44.460796,-61.063232 6.867587,-2.679223 16.3126,-4.698628 21.9761,-4.698628 0.33526,0 0.58756,-0.03636 0.58756,-0.08467 0,-0.05486 1.06,-0.08467 3.01067,-0.08467 1.98554,0 2.99284,0.02883 2.95833,0.08467 -0.0329,0.0533 0.16281,0.08467 0.52841,0.08467 6.06536,0 15.84076,2.16287 23.05126,5.100236 25.04773,10.203778 42.48692,34.832954 43.48995,61.420374 0.0303,0.80322 0.0873,1.44053 0.12657,1.41623 0.0393,-0.0243 0.0715,0.93188 0.0715,2.12482 0,1.19295 -0.0322,2.14912 -0.0715,2.12483 -0.0393,-0.0243 -0.0961,0.59259 -0.12628,1.37084 -1.11747,28.84252 -21.23357,54.82635 -49.13234,63.46389 -5.79079,1.79284 -13.3771,3.10211 -17.97462,3.10211 -0.39865,0 -0.68263,0.0352 -0.68263,0.0847 0,0.0543 -0.82011,0.0847 -2.291,0.0847 -1.26005,0 -2.27111,-0.0322 -2.24681,-0.0715 z m 8.09381,-3.6884 c 34.78414,-3.32431 60.88013,-31.81864 60.87494,-66.46966 -0.006,-39.80166 -34.43583,-70.648311 -74.0385,-66.333102 -33.759555,3.678528 -59.35617,32.288432 -59.345399,66.331652 0.01116,35.26617 27.031576,64.08357 62.433619,66.58575 1.68071,0.11879 8.43723,0.0419 10.07534,-0.11464 z m 13.68259,-21.70173 c -0.0282,-0.0282 -0.0513,-2.03812 -0.0513,-4.46649 v -4.41523 l 0.56234,-0.8835 c 6.39023,-10.03961 9.87948,-21.66328 11.20665,-37.33249 0.35537,-4.19578 0.3328,-4.78193 -0.187,-4.85739 -0.15345,-0.0223 -0.75524,-0.10521 -1.33733,-0.18431 -2.93243,-0.39847 -8.73035,-2.54894 -10.09649,-3.74484 -0.17258,-0.15107 -0.23491,-6.36879 -0.0639,-6.36879 0.0464,0 0.6655,0.34983 1.37583,0.7774 3.8721,2.33075 6.85777,3.53058 9.75818,3.92146 2.54841,0.34344 3.30552,0.62549 4.36707,1.62691 2.07809,1.96036 2.26848,3.54935 1.42825,11.91989 -1.67363,16.67308 -6.3456,30.12071 -14.07502,40.513 -1.4255,1.91659 -2.80076,3.58098 -2.88737,3.49438 z M 92.892949,164.82088 v -1.86804 l 7.212791,-9.07513 c 3.96704,-4.99131 7.21506,-9.15132 7.21784,-9.24445 0.005,-0.16777 -0.0567,-0.16954 -6.66385,-0.19101 l -6.668877,-0.0217 0.02255,-2.26432 0.02255,-2.26433 h 10.625667 10.62566 l 0.0228,1.87675 0.0228,1.87675 -7.23293,9.01294 c -7.94774,9.90368 -7.51428,9.34449 -7.33294,9.45985 0.078,0.0496 2.91159,0.0813 7.34483,0.0821 l 7.21784,0.001 v 2.24367 2.24366 h -11.2184 -11.218331 z m 44.575021,-46.78439 c -0.55771,-0.30898 -1.77602,-1.03965 -2.70735,-1.62373 -2.30828,-1.4476 -4.55793,-2.83146 -5.6515,-3.47648 l -0.91017,-0.53684 v -2.97765 c 0,-4.93948 -0.52964,-7.33061 -2.295,-10.361149 -7.13755,-12.252801 -24.50316,-10.385453 -29.030408,3.121679 -0.715921,2.13597 -0.856382,3.21735 -0.908517,6.99447 -0.03039,2.20176 -0.07247,3.17484 -0.13962,3.22888 -0.05287,0.0426 -0.667622,0.41128 -1.366122,0.81941 -0.6985,0.40812 -2.50825,1.51168 -4.021667,2.45236 -3.347478,2.08066 -4.692907,2.85789 -4.883576,2.82117 -0.318549,-0.0613 -0.131859,-12.35724 0.224485,-14.78516 1.724828,-11.752008 10.604331,-21.083433 21.888755,-23.002787 15.32936,-2.607351 29.49258,8.689524 30.94153,24.679597 0.14735,1.62617 0.0816,13.208 -0.075,13.208 -0.0285,0 -0.50816,-0.2528 -1.06586,-0.56177 z"
         id="path3845"
         inkscape:connector-curvature="0" />
    </g>
  </g>
</svg>
